<?xml version="1.0" encoding="iso-8859-1"?>
<!-- Generator: Adobe Illustrator 16.0.0, SVG Export Plug-In . SVG Version: 6.00 Build 0)  -->
<!DOCTYPE svg PUBLIC "-//W3C//DTD SVG 1.1//EN" "http://www.w3.org/Graphics/SVG/1.1/DTD/svg11.dtd">
<svg version="1.1" id="Capa_1" xmlns="http://www.w3.org/2000/svg" xmlns:xlink="http://www.w3.org/1999/xlink" x="0px" y="0px"
	 width="488.857px" height="488.857px" viewBox="0 0 488.857 488.857" style="enable-background:new 0 0 488.857 488.857;"
	 xml:space="preserve">
<g>
	<g>
		<g id="Icons_5_">
			<g>
				<path d="M473.185,75.404c-5.27-5.277-11.597-9.1-18.387-11.624c-1.146,10.796-4.437,21.312-10.055,30.959
					c1.979,0.959,3.941,1.996,5.523,3.587c8.231,8.238,8.231,21.628,0,29.869L202.603,375.865l-17.479-17.476v0.011l-17.189-17.192
					l247.663-247.67c20.864-20.871,20.878-54.833,0-75.713c-20.229-20.245-55.499-20.238-75.695-0.006L80.765,276.951
					c-6.333,6.333-6.333,16.591,0,22.92l52.793,52.801c0,0.007,0,0.007,0,0.007l44.084,44.087c0.013,0.013,0.026,0.013,0.047,0.03
					l13.454,13.454c3.163,3.167,7.315,4.748,11.461,4.748s8.292-1.581,11.462-4.748l259.118-259.133
					C494.082,130.247,494.082,96.278,473.185,75.404z M362.827,40.741c7.915-7.898,21.939-7.915,29.854,0.006
					c8.231,8.231,8.231,21.631,0,29.873L145.012,318.283l-29.869-29.869L362.827,40.741z"/>
				<path d="M61.119,314.296c-5.189-5.181-13.582-5.181-18.737-0.013l-16.907,16.885c-1.649,1.662-2.854,3.741-3.452,6.022
					l-17.54,67.141c-1.205,4.56,0.114,9.395,3.453,12.727l7.821,7.82l-6.32,6.306c-12.586,12.593-12.586,32.996,0.02,45.588
					c12.579,12.592,32.985,12.592,45.584,0l6.3-6.299l7.821,7.81c3.325,3.335,8.17,4.648,12.727,3.453l67.149-17.546
					c2.262-0.596,4.335-1.791,6.017-3.453l16.873-16.891c5.175-5.175,5.175-13.564,0-18.74L61.119,314.296z"/>
			</g>
		</g>
	</g>
</g>
<g>
</g>
<g>
</g>
<g>
</g>
<g>
</g>
<g>
</g>
<g>
</g>
<g>
</g>
<g>
</g>
<g>
</g>
<g>
</g>
<g>
</g>
<g>
</g>
<g>
</g>
<g>
</g>
<g>
</g>
</svg>
