<?xml version="1.0" encoding="iso-8859-1"?>
<!-- Generator: Adobe Illustrator 16.0.0, SVG Export Plug-In . SVG Version: 6.00 Build 0)  -->
<!DOCTYPE svg PUBLIC "-//W3C//DTD SVG 1.1//EN" "http://www.w3.org/Graphics/SVG/1.1/DTD/svg11.dtd">
<svg version="1.1" id="Capa_1" xmlns="http://www.w3.org/2000/svg" xmlns:xlink="http://www.w3.org/1999/xlink" x="0px" y="0px"
	 width="495.906px" height="495.905px" viewBox="0 0 495.906 495.905" style="enable-background:new 0 0 495.906 495.905;"
	 xml:space="preserve">
<g>
	<g>
		<g id="Icons_23_">
			<g>
				<path d="M247.971,0C152.253,0,74.369,77.873,74.369,173.592c0,39.198,12.854,76.221,37.16,107.063
					c18.147,23.029,35.482,48.416,50.146,73.407l0.324,0.55V387.5c0,33.09,18.999,61.542,46.479,75.9
					c3.612,18.515,19.894,32.505,39.459,32.505c19.571,0,35.853-13.99,39.459-32.505c27.482-14.358,46.482-42.812,46.482-75.9
					v-32.822l0.357-0.607c14.906-25.395,31.771-50.092,50.14-73.406c24.313-30.852,37.161-67.873,37.161-107.071
					C421.539,77.873,343.673,0,247.971,0z M247.937,440.296c-18.382,0-34.553-9.459-44.009-23.746h88.016
					C282.496,430.837,266.324,440.296,247.937,440.296z M195.141,383.405v-21.154h105.592v21.154H195.141z M358.352,260.149
					c-17.335,21.984-33.392,45.146-47.828,68.956H185.369c-14.307-23.602-30.719-47.276-47.813-68.964
					c-19.647-24.936-30.039-54.872-30.039-86.55c0-77.445,63.008-140.447,140.453-140.447c77.433,0,140.418,63.001,140.418,140.447
					C388.391,205.271,377.999,235.207,358.352,260.149z"/>
				<path d="M247.971,63.673c-6.86,0-12.428,5.567-12.428,12.428v39.518c0,6.861,5.567,12.429,12.428,12.429
					s12.429-5.567,12.429-12.429V76.1C260.398,69.24,254.832,63.673,247.971,63.673z"/>
				<path d="M247.971,221.75c-6.86,0-12.428,5.567-12.428,12.431v39.515c0,6.859,5.567,12.431,12.428,12.431
					s12.429-5.57,12.429-12.431v-39.515C260.398,227.317,254.832,221.75,247.971,221.75z"/>
				<path d="M209.351,83.127c-3.414-5.95-11.004-8.003-16.977-4.549c-5.939,3.43-7.976,11.028-4.549,16.977l19.75,34.215
					c2.299,3.991,6.469,6.214,10.777,6.214c2.104,0,4.238-0.533,6.2-1.666c5.938-3.43,7.976-11.031,4.548-16.977L209.351,83.127z"/>
				<path d="M288.366,220.026c-3.413-5.949-11.02-7.986-16.979-4.563c-5.938,3.431-7.977,11.038-4.55,16.977l19.751,34.232
					c2.3,3.995,6.47,6.221,10.776,6.221c2.104,0,4.239-0.532,6.2-1.657c5.938-3.431,7.977-11.038,4.55-16.978L288.366,220.026z"/>
				<path d="M156.184,136.252l34.215,19.771c1.962,1.132,4.095,1.665,6.2,1.665c4.309,0,8.479-2.227,10.777-6.214
					c3.434-5.939,1.396-13.546-4.542-16.977l-34.216-19.771c-5.973-3.441-13.55-1.394-16.983,4.548
					C148.208,125.214,150.245,132.822,156.184,136.252z"/>
				<path d="M339.737,213.526l-34.215-19.761c-5.952-3.447-13.56-1.383-16.979,4.549c-3.428,5.939-1.392,13.546,4.549,16.977
					l34.217,19.764c1.961,1.132,4.094,1.665,6.198,1.665c4.31,0,8.479-2.226,10.776-6.214
					C347.719,224.564,345.681,216.96,339.737,213.526z"/>
				<path d="M201.135,174.903c0-6.865-5.567-12.432-12.436-12.432h-39.535c-6.867,0-12.434,5.567-12.434,12.432
					c0,6.861,5.566,12.428,12.434,12.428h39.535C195.567,187.331,201.135,181.764,201.135,174.903z"/>
				<path d="M346.749,162.472h-39.541c-6.861,0-12.429,5.567-12.429,12.432c0,6.861,5.565,12.428,12.429,12.428h39.541
					c6.862,0,12.429-5.567,12.429-12.428C359.177,168.038,353.611,162.472,346.749,162.472z"/>
				<path d="M207.363,198.338c-3.435-5.932-11.024-7.996-16.977-4.549l-34.202,19.754c-5.939,3.43-7.976,11.038-4.549,16.977
					c2.299,3.991,6.476,6.218,10.783,6.218c2.106,0,4.239-0.533,6.2-1.669l34.195-19.753
					C208.752,211.885,210.797,204.277,207.363,198.338z"/>
				<path d="M288.545,151.482c2.298,3.991,6.477,6.217,10.782,6.217c2.1,0,4.239-0.537,6.194-1.669l34.2-19.753
					c5.938-3.431,7.981-11.039,4.549-16.977c-3.436-5.942-11.004-7.989-16.978-4.548l-34.201,19.753
					C287.154,137.935,285.118,145.542,288.545,151.482z"/>
				<path d="M224.533,215.477c-5.968-3.413-13.558-1.376-16.978,4.566l-19.729,34.229c-3.427,5.948-1.391,13.547,4.549,16.979
					c1.961,1.125,4.094,1.658,6.2,1.658c4.308,0,8.478-2.232,10.776-6.226l19.729-34.229
					C232.516,226.508,230.478,218.907,224.533,215.477z"/>
				<path d="M271.39,134.36c1.961,1.125,4.095,1.659,6.198,1.659c4.31,0,8.479-2.233,10.776-6.225l19.729-34.222
					c3.436-5.949,1.397-13.547-4.542-16.977c-5.959-3.423-13.562-1.376-16.982,4.563l-19.729,34.222
					C263.413,123.329,265.45,130.926,271.39,134.36z"/>
			</g>
		</g>
	</g>
</g>
<g>
</g>
<g>
</g>
<g>
</g>
<g>
</g>
<g>
</g>
<g>
</g>
<g>
</g>
<g>
</g>
<g>
</g>
<g>
</g>
<g>
</g>
<g>
</g>
<g>
</g>
<g>
</g>
<g>
</g>
</svg>
