<?xml version="1.0" encoding="iso-8859-1"?>
<!-- Generator: Adobe Illustrator 16.0.0, SVG Export Plug-In . SVG Version: 6.00 Build 0)  -->
<!DOCTYPE svg PUBLIC "-//W3C//DTD SVG 1.1//EN" "http://www.w3.org/Graphics/SVG/1.1/DTD/svg11.dtd">
<svg version="1.1" id="Capa_1" xmlns="http://www.w3.org/2000/svg" xmlns:xlink="http://www.w3.org/1999/xlink" x="0px" y="0px"
	 width="494.354px" height="494.354px" viewBox="0 0 494.354 494.354" style="enable-background:new 0 0 494.354 494.354;"
	 xml:space="preserve">
<g>
	<g>
		<g id="Icons_6_">
			<path d="M412.92,165.747C412.92,74.353,338.563,0,247.181,0C155.79,0,81.434,74.354,81.434,165.747
				c0,37.437,12.252,72.792,35.479,102.248c16.304,20.678,31.842,43.383,45.293,65.895V434.69c0,9.165,7.428,16.594,16.599,16.594
				h18.832v8.03c0,19.35,15.684,35.039,35.039,35.039h29.003c19.354,0,35.038-15.689,35.038-35.039v-8.03h18.832
				c9.171,0,16.6-7.429,16.6-16.594V334.027c13.582-22.795,28.734-45.023,45.278-66.025
				C400.647,238.563,412.92,203.201,412.92,165.747z M223.125,312.623l-28.699-125.108l17.24-10.626l21.313,20.039
				c1.688,1.573,3.92,2.318,6.222,2.239c2.288-0.148,4.424-1.241,5.885-3.016l18.41-22.446l10.729,20.962
				c1.46,2.853,4.375,4.514,7.388,4.514c1.073,0,2.144-0.2,3.177-0.631l13.938-5.784l-27.501,119.857H223.125L223.125,312.623z
				 M298.956,345.816v27.842H195.397v-27.842H298.956z M195.397,418.095v-27.842h103.56v27.842H195.397z M306.137,312.623h-9.385
				l31.421-136.926c1.543-6.69-2.642-13.368-9.353-14.908c-6.704-1.54-13.367,2.65-14.902,9.351l-0.637,2.757l-17.775,7.39
				l-12.996-25.42c-1.281-2.486-3.728-4.165-6.519-4.465c-2.806-0.334-5.525,0.827-7.291,2.98l-20.811,25.371l-19.466-18.305
				c-2.735-2.553-6.856-2.99-10.032-1.021l-17.889,11.005l-0.068-0.3c-1.523-6.687-8.131-10.877-14.925-9.344
				c-6.691,1.54-10.874,8.218-9.352,14.918l31.429,136.915h-9.385c-13.547-22.32-29.071-44.694-45.23-65.181
				c-18.557-23.53-28.348-51.786-28.348-81.694c0-73.089,59.459-132.558,132.555-132.558c73.089,0,132.547,59.469,132.547,132.558
				c0,29.926-9.805,58.181-28.361,81.705C335.001,268.234,319.794,290.121,306.137,312.623z"/>
		</g>
	</g>
</g>
<g>
</g>
<g>
</g>
<g>
</g>
<g>
</g>
<g>
</g>
<g>
</g>
<g>
</g>
<g>
</g>
<g>
</g>
<g>
</g>
<g>
</g>
<g>
</g>
<g>
</g>
<g>
</g>
<g>
</g>
</svg>
